{
    "asset" : {
        "generator" : "Khronos glTF Blender I/O v1.1.46",
        "version" : "2.0"
    },
    "scene" : 0,
    "scenes" : [
        {
            "name" : "Scene",
            "nodes" : [
                0,
                1,
                2
            ]
        }
    ],
    "nodes" : [
        {
            "name" : "Light",
            "rotation" : [
                0.16907575726509094,
                0.7558803558349609,
                -0.27217137813568115,
                0.570947527885437
            ],
            "translation" : [
                4.076245307922363,
                5.903861999511719,
                -1.0054539442062378
            ]
        },
        {
            "name" : "Camera",
            "rotation" : [
                0.483536034822464,
                0.33687159419059753,
                -0.20870360732078552,
                0.7804827094078064
            ],
            "translation" : [
                7.358891487121582,
                4.958309173583984,
                6.925790786743164
            ]
        },
        {
            "mesh" : 0,
            "name" : "AA51880",
            "rotation" : [
                0.009400425478816032,
                0,
                0,
                0.9999558329582214
            ],
            "translation" : [
                0,
                12.307697296142578,
                0
            ]
        }
    ],
    "materials" : [
        {
            "doubleSided" : true,
            "emissiveFactor" : [
                0,
                0,
                0
            ],
            "name" : "Opaque(191,191,191)",
            "pbrMetallicRoughness" : {
                "baseColorFactor" : [
                    0.800000011920929,
                    0.800000011920929,
                    0.800000011920929,
                    1
                ],
                "metallicFactor" : 0,
                "roughnessFactor" : 0.5
            }
        },
        {
            "doubleSided" : true,
            "emissiveFactor" : [
                0,
                0,
                0
            ],
            "name" : "Opaque(51,51,51)",
            "pbrMetallicRoughness" : {
                "baseColorFactor" : [
                    0.800000011920929,
                    0.800000011920929,
                    0.800000011920929,
                    1
                ],
                "metallicFactor" : 0,
                "roughnessFactor" : 0.5
            }
        },
        {
            "doubleSided" : true,
            "emissiveFactor" : [
                0,
                0,
                0
            ],
            "name" : "Opaque(10,10,10)",
            "pbrMetallicRoughness" : {
                "baseColorFactor" : [
                    0.800000011920929,
                    0.800000011920929,
                    0.800000011920929,
                    1
                ],
                "metallicFactor" : 0,
                "roughnessFactor" : 0.5
            }
        }
    ],
    "meshes" : [
        {
            "name" : "AA51880",
            "primitives" : [
                {
                    "attributes" : {
                        "POSITION" : 0,
                        "NORMAL" : 1,
                        "TEXCOORD_0" : 2
                    },
                    "indices" : 3,
                    "material" : 0
                },
                {
                    "attributes" : {
                        "POSITION" : 4,
                        "NORMAL" : 5,
                        "TEXCOORD_0" : 6
                    },
                    "indices" : 7,
                    "material" : 1
                },
                {
                    "attributes" : {
                        "POSITION" : 8,
                        "NORMAL" : 9,
                        "TEXCOORD_0" : 10
                    },
                    "indices" : 11,
                    "material" : 2
                }
            ]
        }
    ],
    "accessors" : [
        {
            "bufferView" : 0,
            "componentType" : 5126,
            "count" : 2368,
            "max" : [
                15.49979305267334,
                -3.5373480319976807,
                -20.75969123840332
            ],
            "min" : [
                9.299793243408203,
                -4.637348175048828,
                -25.539691925048828
            ],
            "type" : "VEC3"
        },
        {
            "bufferView" : 1,
            "componentType" : 5126,
            "count" : 2368,
            "type" : "VEC3"
        },
        {
            "bufferView" : 2,
            "componentType" : 5126,
            "count" : 2368,
            "type" : "VEC2"
        },
        {
            "bufferView" : 3,
            "componentType" : 5123,
            "count" : 5856,
            "type" : "SCALAR"
        },
        {
            "bufferView" : 4,
            "componentType" : 5126,
            "count" : 74,
            "max" : [
                11.049793243408203,
                -2.887347936630249,
                -24.999691009521484
            ],
            "min" : [
                10.74979305267334,
                -2.937347888946533,
                -25.29969024658203
            ],
            "type" : "VEC3"
        },
        {
            "bufferView" : 5,
            "componentType" : 5126,
            "count" : 74,
            "type" : "VEC3"
        },
        {
            "bufferView" : 6,
            "componentType" : 5126,
            "count" : 74,
            "type" : "VEC2"
        },
        {
            "bufferView" : 7,
            "componentType" : 5123,
            "count" : 210,
            "type" : "SCALAR"
        },
        {
            "bufferView" : 8,
            "componentType" : 5126,
            "count" : 128,
            "max" : [
                14.399792671203613,
                -2.887347936630249,
                -20.649690628051758
            ],
            "min" : [
                10.399792671203613,
                -4.387348175048828,
                -25.649690628051758
            ],
            "type" : "VEC3"
        },
        {
            "bufferView" : 9,
            "componentType" : 5126,
            "count" : 128,
            "type" : "VEC3"
        },
        {
            "bufferView" : 10,
            "componentType" : 5126,
            "count" : 128,
            "type" : "VEC2"
        },
        {
            "bufferView" : 11,
            "componentType" : 5123,
            "count" : 426,
            "type" : "SCALAR"
        }
    ],
    "bufferViews" : [
        {
            "buffer" : 0,
            "byteLength" : 28416,
            "byteOffset" : 0
        },
        {
            "buffer" : 0,
            "byteLength" : 28416,
            "byteOffset" : 28416
        },
        {
            "buffer" : 0,
            "byteLength" : 18944,
            "byteOffset" : 56832
        },
        {
            "buffer" : 0,
            "byteLength" : 11712,
            "byteOffset" : 75776
        },
        {
            "buffer" : 0,
            "byteLength" : 888,
            "byteOffset" : 87488
        },
        {
            "buffer" : 0,
            "byteLength" : 888,
            "byteOffset" : 88376
        },
        {
            "buffer" : 0,
            "byteLength" : 592,
            "byteOffset" : 89264
        },
        {
            "buffer" : 0,
            "byteLength" : 420,
            "byteOffset" : 89856
        },
        {
            "buffer" : 0,
            "byteLength" : 1536,
            "byteOffset" : 90276
        },
        {
            "buffer" : 0,
            "byteLength" : 1536,
            "byteOffset" : 91812
        },
        {
            "buffer" : 0,
            "byteLength" : 1024,
            "byteOffset" : 93348
        },
        {
            "buffer" : 0,
            "byteLength" : 852,
            "byteOffset" : 94372
        }
    ],
    "buffers" : [
        {
            "byteLength" : 95224,
            "uri" : "data:application/octet-stream;base64,"
        }
    ]
}
