{
    "asset" : {
        "generator" : "Khronos glTF Blender I/O v1.4.40",
        "version" : "2.0"
    },
    "scene" : 0,
    "scenes" : [
        {
            "name" : "Scene",
            "nodes" : [
                7,
                8,
                9
            ]
        }
    ],
    "nodes" : [
        {
            "mesh" : 0,
            "name" : "Mesh_0.001"
        },
        {
            "mesh" : 1,
            "name" : "Mesh_1.001"
        },
        {
            "mesh" : 2,
            "name" : "Mesh_2.001"
        },
        {
            "children" : [
                0,
                1,
                2
            ],
            "name" : "SOP64P600X175-16N"
        },
        {
            "children" : [
                3
            ],
            "name" : "SOP64P600X175-16N:U$1",
            "translation" : [
                0.01269999984651804,
                0.011429999954998493,
                0.0015699999639764428
            ]
        },
        {
            "children" : [
                4
            ],
            "name" : "PCB Component"
        },
        {
            "children" : [
                5
            ],
            "name" : "PCB Component:1",
            "translation" : [
                -0.0003002065350301564,
                0.011719691567122936,
                -0.006207347847521305
            ]
        },
        {
            "children" : [
                6
            ],
            "name" : "AA51880",
            "rotation" : [
                -0.6972783207893372,
                0,
                0,
                0.7168005704879761
            ],
            "translation" : [
                -0.012402178719639778,
                0.005359105300158262,
                0.023225173354148865
            ]
        },
        {
            "name" : "Light",
            "rotation" : [
                0.16907575726509094,
                0.7558803558349609,
                -0.27217137813568115,
                0.570947527885437
            ],
            "translation" : [
                4.076245307922363,
                5.903861999511719,
                -1.0054539442062378
            ]
        },
        {
            "name" : "Camera",
            "rotation" : [
                0.483536034822464,
                0.33687159419059753,
                -0.20870360732078552,
                0.7804827094078064
            ],
            "translation" : [
                7.358891487121582,
                4.958309173583984,
                6.925790786743164
            ]
        }
    ],
    "materials" : [
        {
            "doubleSided" : true,
            "name" : "Material_0.001",
            "pbrMetallicRoughness" : {
                "baseColorFactor" : [
                    0.7490196228027344,
                    0.7490196228027344,
                    0.7490196228027344,
                    1
                ],
                "metallicFactor" : 0
            }
        },
        {
            "doubleSided" : true,
            "name" : "Material_1.001",
            "pbrMetallicRoughness" : {
                "baseColorFactor" : [
                    0.20000000298023224,
                    0.20000000298023224,
                    0.20000000298023224,
                    1
                ],
                "metallicFactor" : 0
            }
        },
        {
            "doubleSided" : true,
            "name" : "Material_2.001",
            "pbrMetallicRoughness" : {
                "baseColorFactor" : [
                    0.03921568766236305,
                    0.03921568766236305,
                    0.03921568766236305,
                    1
                ],
                "metallicFactor" : 0
            }
        }
    ],
    "meshes" : [
        {
            "name" : "Mesh_0.001",
            "primitives" : [
                {
                    "attributes" : {
                        "POSITION" : 0,
                        "NORMAL" : 1
                    },
                    "indices" : 2,
                    "material" : 0
                }
            ]
        },
        {
            "name" : "Mesh_1.001",
            "primitives" : [
                {
                    "attributes" : {
                        "POSITION" : 3,
                        "NORMAL" : 4
                    },
                    "indices" : 5,
                    "material" : 1
                }
            ]
        },
        {
            "name" : "Mesh_2.001",
            "primitives" : [
                {
                    "attributes" : {
                        "POSITION" : 6,
                        "NORMAL" : 7
                    },
                    "indices" : 8,
                    "material" : 2
                }
            ]
        }
    ],
    "accessors" : [
        {
            "bufferView" : 0,
            "componentType" : 5126,
            "count" : 5080,
            "max" : [
                0.003100000089034438,
                0.0023900000378489494,
                0.0010999999940395355
            ],
            "min" : [
                -0.003100000089034438,
                -0.0023900000378489494,
                -1.1102230773579206e-19
            ],
            "type" : "VEC3"
        },
        {
            "bufferView" : 1,
            "componentType" : 5126,
            "count" : 5080,
            "type" : "VEC3"
        },
        {
            "bufferView" : 2,
            "componentType" : 5123,
            "count" : 8160,
            "type" : "SCALAR"
        },
        {
            "bufferView" : 3,
            "componentType" : 5126,
            "count" : 144,
            "max" : [
                -0.0013500000350177288,
                0.00215000007301569,
                0.0017500000540167093
            ],
            "min" : [
                -0.0016499999910593033,
                0.0018500000005587935,
                0.0017000000225380063
            ],
            "type" : "VEC3"
        },
        {
            "bufferView" : 4,
            "componentType" : 5126,
            "count" : 144,
            "type" : "VEC3"
        },
        {
            "bufferView" : 5,
            "componentType" : 5123,
            "count" : 318,
            "type" : "SCALAR"
        },
        {
            "bufferView" : 6,
            "componentType" : 5126,
            "count" : 317,
            "max" : [
                0.0020000000949949026,
                0.0024999999441206455,
                0.0017500000540167093
            ],
            "min" : [
                -0.0020000000949949026,
                -0.0024999999441206455,
                0.0002500000118743628
            ],
            "type" : "VEC3"
        },
        {
            "bufferView" : 7,
            "componentType" : 5126,
            "count" : 317,
            "type" : "VEC3"
        },
        {
            "bufferView" : 8,
            "componentType" : 5123,
            "count" : 462,
            "type" : "SCALAR"
        }
    ],
    "bufferViews" : [
        {
            "buffer" : 0,
            "byteLength" : 60960,
            "byteOffset" : 0
        },
        {
            "buffer" : 0,
            "byteLength" : 60960,
            "byteOffset" : 60960
        },
        {
            "buffer" : 0,
            "byteLength" : 16320,
            "byteOffset" : 121920
        },
        {
            "buffer" : 0,
            "byteLength" : 1728,
            "byteOffset" : 138240
        },
        {
            "buffer" : 0,
            "byteLength" : 1728,
            "byteOffset" : 139968
        },
        {
            "buffer" : 0,
            "byteLength" : 636,
            "byteOffset" : 141696
        },
        {
            "buffer" : 0,
            "byteLength" : 3804,
            "byteOffset" : 142332
        },
        {
            "buffer" : 0,
            "byteLength" : 3804,
            "byteOffset" : 146136
        },
        {
            "buffer" : 0,
            "byteLength" : 924,
            "byteOffset" : 149940
        }
    ],
    "buffers" : [
        {
            "byteLength" : 150864,
            "uri" : "data:application/octet-stream;base64,"
        }
    ]
}
