{
    "asset" : {
        "generator" : "Khronos glTF Blender I/O v1.1.46",
        "version" : "2.0"
    },
    "scene" : 0,
    "scenes" : [
        {
            "name" : "Scene",
            "nodes" : [
                0,
                1,
                2,
                3,
                11
            ]
        }
    ],
    "nodes" : [
        {
            "name" : "Light",
            "rotation" : [
                0.16907575726509094,
                0.7558803558349609,
                -0.27217137813568115,
                0.570947527885437
            ],
            "translation" : [
                4.076245307922363,
                5.903861999511719,
                -1.0054539442062378
            ]
        },
        {
            "name" : "Camera",
            "rotation" : [
                0.483536034822464,
                0.33687159419059753,
                -0.20870360732078552,
                0.7804827094078064
            ],
            "translation" : [
                7.358891487121582,
                4.958309173583984,
                6.925790786743164
            ]
        },
        {
            "name" : "Light.001",
            "rotation" : [
                0.5232754945755005,
                0.34203392267227173,
                -0.7269423604011536,
                0.284166157245636
            ],
            "translation" : [
                4.076245307922363,
                5.903862476348877,
                -1.0054532289505005
            ]
        },
        {
            "name" : "Camera.001",
            "rotation" : [
                0.8937963247299194,
                0.09062855690717697,
                -0.3857799172401428,
                0.20997287333011627
            ],
            "translation" : [
                7.358891487121582,
                4.958308696746826,
                6.925792217254639
            ]
        },
        {
            "mesh" : 0,
            "name" : "Object_5"
        },
        {
            "mesh" : 1,
            "name" : "Object_6"
        },
        {
            "mesh" : 2,
            "name" : "Object_7"
        },
        {
            "children" : [
                4,
                5,
                6
            ],
            "name" : "SOP64P600X175-16N"
        },
        {
            "children" : [
                7
            ],
            "name" : "SOP64P600X175-16N:U$1",
            "translation" : [
                0.01269999984651804,
                0.0015699999639764428,
                -0.011429999954998493
            ]
        },
        {
            "children" : [
                8
            ],
            "name" : "PCB Component"
        },
        {
            "children" : [
                9
            ],
            "name" : "PCB Component:1",
            "translation" : [
                -0.0003002065350301564,
                -0.006207347847521305,
                -0.011719691567122936
            ]
        },
        {
            "children" : [
                10
            ],
            "name" : "AA51880",
            "rotation" : [
                0.7071068286895752,
                0,
                0,
                0.7071067094802856
            ],
            "translation" : [
                -0.012215983122587204,
                0,
                0.004164848942309618
            ]
        }
    ],
    "materials" : [
        {
            "doubleSided" : true,
            "emissiveFactor" : [
                0,
                0,
                0
            ],
            "name" : "Material_0.001",
            "pbrMetallicRoughness" : {
                "baseColorFactor" : [
                    0.7490196228027344,
                    0.7490196228027344,
                    0.7490196228027344,
                    1
                ],
                "metallicFactor" : 0,
                "roughnessFactor" : 1
            }
        },
        {
            "doubleSided" : true,
            "emissiveFactor" : [
                0,
                0,
                0
            ],
            "name" : "Material_1.001",
            "pbrMetallicRoughness" : {
                "baseColorFactor" : [
                    0.20000000298023224,
                    0.20000000298023224,
                    0.20000000298023224,
                    1
                ],
                "metallicFactor" : 0,
                "roughnessFactor" : 1
            }
        },
        {
            "doubleSided" : true,
            "emissiveFactor" : [
                0,
                0,
                0
            ],
            "name" : "Material_2.001",
            "pbrMetallicRoughness" : {
                "baseColorFactor" : [
                    0.03921568766236305,
                    0.03921568766236305,
                    0.03921568766236305,
                    1
                ],
                "metallicFactor" : 0,
                "roughnessFactor" : 1
            }
        }
    ],
    "meshes" : [
        {
            "name" : "Mesh_0.001",
            "primitives" : [
                {
                    "attributes" : {
                        "POSITION" : 0,
                        "NORMAL" : 1
                    },
                    "indices" : 2,
                    "material" : 0
                }
            ]
        },
        {
            "name" : "Mesh_1.001",
            "primitives" : [
                {
                    "attributes" : {
                        "POSITION" : 3,
                        "NORMAL" : 4
                    },
                    "indices" : 5,
                    "material" : 1
                }
            ]
        },
        {
            "name" : "Mesh_2.001",
            "primitives" : [
                {
                    "attributes" : {
                        "POSITION" : 6,
                        "NORMAL" : 7
                    },
                    "indices" : 8,
                    "material" : 2
                }
            ]
        }
    ],
    "accessors" : [
        {
            "bufferView" : 0,
            "componentType" : 5126,
            "count" : 5068,
            "max" : [
                0.003100000089034438,
                0.0010999999940395355,
                0.0023900000378489494
            ],
            "min" : [
                -0.003100000089034438,
                -1.1102230773579206e-19,
                -0.0023900000378489494
            ],
            "type" : "VEC3"
        },
        {
            "bufferView" : 1,
            "componentType" : 5126,
            "count" : 5068,
            "type" : "VEC3"
        },
        {
            "bufferView" : 2,
            "componentType" : 5123,
            "count" : 8160,
            "type" : "SCALAR"
        },
        {
            "bufferView" : 3,
            "componentType" : 5126,
            "count" : 135,
            "max" : [
                -0.0013500000350177288,
                0.0017500000540167093,
                -0.0018500000005587935
            ],
            "min" : [
                -0.0016499999910593033,
                0.0017000000225380063,
                -0.00215000007301569
            ],
            "type" : "VEC3"
        },
        {
            "bufferView" : 4,
            "componentType" : 5126,
            "count" : 135,
            "type" : "VEC3"
        },
        {
            "bufferView" : 5,
            "componentType" : 5123,
            "count" : 318,
            "type" : "SCALAR"
        },
        {
            "bufferView" : 6,
            "componentType" : 5126,
            "count" : 209,
            "max" : [
                0.0020000000949949026,
                0.0017500000540167093,
                0.0024999999441206455
            ],
            "min" : [
                -0.0020000000949949026,
                0.0002500000118743628,
                -0.0024999999441206455
            ],
            "type" : "VEC3"
        },
        {
            "bufferView" : 7,
            "componentType" : 5126,
            "count" : 209,
            "type" : "VEC3"
        },
        {
            "bufferView" : 8,
            "componentType" : 5123,
            "count" : 462,
            "type" : "SCALAR"
        }
    ],
    "bufferViews" : [
        {
            "buffer" : 0,
            "byteLength" : 60816,
            "byteOffset" : 0
        },
        {
            "buffer" : 0,
            "byteLength" : 60816,
            "byteOffset" : 60816
        },
        {
            "buffer" : 0,
            "byteLength" : 16320,
            "byteOffset" : 121632
        },
        {
            "buffer" : 0,
            "byteLength" : 1620,
            "byteOffset" : 137952
        },
        {
            "buffer" : 0,
            "byteLength" : 1620,
            "byteOffset" : 139572
        },
        {
            "buffer" : 0,
            "byteLength" : 636,
            "byteOffset" : 141192
        },
        {
            "buffer" : 0,
            "byteLength" : 2508,
            "byteOffset" : 141828
        },
        {
            "buffer" : 0,
            "byteLength" : 2508,
            "byteOffset" : 144336
        },
        {
            "buffer" : 0,
            "byteLength" : 924,
            "byteOffset" : 146844
        }
    ],
    "buffers" : [
        {
            "byteLength" : 147768,
            "uri" : "data:application/octet-stream;base64,"
        }
    ]
}
