{
    "asset" : {
        "generator" : "Khronos glTF Blender I/O v1.4.40",
        "version" : "2.0"
    },
    "scene" : 0,
    "scenes" : [
        {
            "name" : "Scene",
            "nodes" : [
                8,
                9,
                10
            ]
        }
    ],
    "nodes" : [
        {
            "name" : "16-copper:1",
            "translation" : [
                0,
                0,
                -3.5000000934815034e-05
            ]
        },
        {
            "mesh" : 0,
            "name" : "Mesh_0"
        },
        {
            "mesh" : 1,
            "name" : "Mesh_1"
        },
        {
            "mesh" : 2,
            "name" : "Mesh_2"
        },
        {
            "children" : [
                1,
                2,
                3
            ],
            "name" : "QFP50P2200X2200X160-144N"
        },
        {
            "children" : [
                4
            ],
            "name" : "QFP50P2200X2200X160-144N:U$1",
            "translation" : [
                0.015239999629557133,
                0.013969999738037586,
                0.0015524999471381307
            ]
        },
        {
            "children" : [
                5
            ],
            "name" : "Packages"
        },
        {
            "children" : [
                6
            ],
            "name" : "Packages:1"
        },
        {
            "children" : [
                0,
                7
            ],
            "name" : "STM32F207ZG",
            "rotation" : [
                -0.7089869976043701,
                0,
                0,
                0.7052215933799744
            ]
        },
        {
            "name" : "Light",
            "rotation" : [
                0.16907575726509094,
                0.7558803558349609,
                -0.27217137813568115,
                0.570947527885437
            ],
            "translation" : [
                4.076245307922363,
                5.903861999511719,
                -1.0054539442062378
            ]
        },
        {
            "name" : "Camera",
            "rotation" : [
                0.483536034822464,
                0.33687159419059753,
                -0.20870360732078552,
                0.7804827094078064
            ],
            "translation" : [
                7.358891487121582,
                4.958309173583984,
                6.925790786743164
            ]
        }
    ],
    "materials" : [
        {
            "doubleSided" : true,
            "name" : "Material_0",
            "pbrMetallicRoughness" : {
                "baseColorFactor" : [
                    0.7490196228027344,
                    0.7490196228027344,
                    0.7490196228027344,
                    1
                ],
                "metallicFactor" : 0
            }
        },
        {
            "doubleSided" : true,
            "name" : "Material_1",
            "pbrMetallicRoughness" : {
                "baseColorFactor" : [
                    0.20000000298023224,
                    0.20000000298023224,
                    0.20000000298023224,
                    1
                ],
                "metallicFactor" : 0
            }
        },
        {
            "doubleSided" : true,
            "name" : "Material_2",
            "pbrMetallicRoughness" : {
                "baseColorFactor" : [
                    0.03921568766236305,
                    0.03921568766236305,
                    0.03921568766236305,
                    1
                ],
                "metallicFactor" : 0
            }
        }
    ],
    "meshes" : [
        {
            "name" : "Mesh_0",
            "primitives" : [
                {
                    "attributes" : {
                        "POSITION" : 0,
                        "NORMAL" : 1
                    },
                    "indices" : 2,
                    "material" : 0
                }
            ]
        },
        {
            "name" : "Mesh_1",
            "primitives" : [
                {
                    "attributes" : {
                        "POSITION" : 3,
                        "NORMAL" : 4
                    },
                    "indices" : 5,
                    "material" : 1
                }
            ]
        },
        {
            "name" : "Mesh_2",
            "primitives" : [
                {
                    "attributes" : {
                        "POSITION" : 6,
                        "NORMAL" : 7
                    },
                    "indices" : 8,
                    "material" : 2
                }
            ]
        }
    ],
    "accessors" : [
        {
            "bufferView" : 0,
            "componentType" : 5126,
            "count" : 45000,
            "max" : [
                0.011099999770522118,
                0.011099999770522118,
                0.0009749999735504389
            ],
            "min" : [
                -0.011099999770522118,
                -0.011099999770522118,
                8.326672757066978e-20
            ],
            "type" : "VEC3"
        },
        {
            "bufferView" : 1,
            "componentType" : 5126,
            "count" : 45000,
            "type" : "VEC3"
        },
        {
            "bufferView" : 2,
            "componentType" : 5123,
            "count" : 73440,
            "type" : "SCALAR"
        },
        {
            "bufferView" : 3,
            "componentType" : 5126,
            "count" : 147,
            "max" : [
                -0.009519999846816063,
                0.009820000268518925,
                0.0015999999595806003
            ],
            "min" : [
                -0.009820000268518925,
                0.009519999846816063,
                0.001550000044517219
            ],
            "type" : "VEC3"
        },
        {
            "bufferView" : 4,
            "componentType" : 5126,
            "count" : 147,
            "type" : "VEC3"
        },
        {
            "bufferView" : 5,
            "componentType" : 5123,
            "count" : 318,
            "type" : "SCALAR"
        },
        {
            "bufferView" : 6,
            "componentType" : 5126,
            "count" : 1353,
            "max" : [
                0.010099999606609344,
                0.010099999606609344,
                0.0015999999595806003
            ],
            "min" : [
                -0.010099999606609344,
                -0.010099999606609344,
                0.0001500000071246177
            ],
            "type" : "VEC3"
        },
        {
            "bufferView" : 7,
            "componentType" : 5126,
            "count" : 1353,
            "type" : "VEC3"
        },
        {
            "bufferView" : 8,
            "componentType" : 5123,
            "count" : 2766,
            "type" : "SCALAR"
        }
    ],
    "bufferViews" : [
        {
            "buffer" : 0,
            "byteLength" : 540000,
            "byteOffset" : 0
        },
        {
            "buffer" : 0,
            "byteLength" : 540000,
            "byteOffset" : 540000
        },
        {
            "buffer" : 0,
            "byteLength" : 146880,
            "byteOffset" : 1080000
        },
        {
            "buffer" : 0,
            "byteLength" : 1764,
            "byteOffset" : 1226880
        },
        {
            "buffer" : 0,
            "byteLength" : 1764,
            "byteOffset" : 1228644
        },
        {
            "buffer" : 0,
            "byteLength" : 636,
            "byteOffset" : 1230408
        },
        {
            "buffer" : 0,
            "byteLength" : 16236,
            "byteOffset" : 1231044
        },
        {
            "buffer" : 0,
            "byteLength" : 16236,
            "byteOffset" : 1247280
        },
        {
            "buffer" : 0,
            "byteLength" : 5532,
            "byteOffset" : 1263516
        }
    ],
    "buffers" : [
        {
            "byteLength" : 1269048,
            "uri" : "data:application/octet-stream;base64,"
        }
    ]
}
