{
    "asset" : {
        "generator" : "Khronos glTF Blender I/O v1.1.46",
        "version" : "2.0"
    },
    "scene" : 0,
    "scenes" : [
        {
            "name" : "Scene",
            "nodes" : [
                0,
                1,
                9,
                10,
                11
            ]
        }
    ],
    "nodes" : [
        {
            "name" : "Light",
            "rotation" : [
                0.16907575726509094,
                0.7558803558349609,
                -0.27217137813568115,
                0.570947527885437
            ],
            "translation" : [
                4.076245307922363,
                5.903861999511719,
                -1.0054539442062378
            ]
        },
        {
            "name" : "Camera",
            "rotation" : [
                0.483536034822464,
                0.33687159419059753,
                -0.20870360732078552,
                0.7804827094078064
            ],
            "translation" : [
                7.358891487121582,
                4.958309173583984,
                6.925790786743164
            ]
        },
        {
            "mesh" : 0,
            "name" : "Mesh_0"
        },
        {
            "mesh" : 1,
            "name" : "Mesh_1"
        },
        {
            "mesh" : 2,
            "name" : "Mesh_2"
        },
        {
            "children" : [
                2,
                3,
                4
            ],
            "name" : "QFP50P1200X1200X160-64N"
        },
        {
            "children" : [
                5
            ],
            "name" : "QFP50P1200X1200X160-64N:U$1",
            "translation" : [
                -0.0002406816929578781,
                -0.00010575854685157537,
                -0.03683000057935715
            ]
        },
        {
            "children" : [
                6
            ],
            "name" : "Packages"
        },
        {
            "children" : [
                7
            ],
            "name" : "Packages:1"
        },
        {
            "children" : [
                8
            ],
            "name" : "stm32f401re1",
            "rotation" : [
                0.7071068286895752,
                0,
                0,
                0.7071067094802856
            ]
        },
        {
            "name" : "Light.001",
            "rotation" : [
                0.5232754945755005,
                0.34203392267227173,
                -0.7269423604011536,
                0.284166157245636
            ],
            "translation" : [
                4.076245307922363,
                5.903862476348877,
                -1.0054532289505005
            ]
        },
        {
            "name" : "Camera.001",
            "rotation" : [
                0.8937963247299194,
                0.09062855690717697,
                -0.3857799172401428,
                0.20997287333011627
            ],
            "translation" : [
                7.358891487121582,
                4.958308696746826,
                6.925792217254639
            ]
        }
    ],
    "materials" : [
        {
            "doubleSided" : true,
            "emissiveFactor" : [
                0,
                0,
                0
            ],
            "name" : "Material_0",
            "pbrMetallicRoughness" : {
                "baseColorFactor" : [
                    0.7490196228027344,
                    0.7490196228027344,
                    0.7490196228027344,
                    1
                ],
                "metallicFactor" : 0,
                "roughnessFactor" : 1
            }
        },
        {
            "doubleSided" : true,
            "emissiveFactor" : [
                0,
                0,
                0
            ],
            "name" : "Material_1",
            "pbrMetallicRoughness" : {
                "baseColorFactor" : [
                    0.20000000298023224,
                    0.20000000298023224,
                    0.20000000298023224,
                    1
                ],
                "metallicFactor" : 0,
                "roughnessFactor" : 1
            }
        },
        {
            "doubleSided" : true,
            "emissiveFactor" : [
                0,
                0,
                0
            ],
            "name" : "Material_2",
            "pbrMetallicRoughness" : {
                "baseColorFactor" : [
                    0.03921568766236305,
                    0.03921568766236305,
                    0.03921568766236305,
                    1
                ],
                "metallicFactor" : 0,
                "roughnessFactor" : 1
            }
        }
    ],
    "meshes" : [
        {
            "name" : "Mesh_0",
            "primitives" : [
                {
                    "attributes" : {
                        "POSITION" : 0,
                        "NORMAL" : 1
                    },
                    "indices" : 2,
                    "material" : 0
                }
            ]
        },
        {
            "name" : "Mesh_1",
            "primitives" : [
                {
                    "attributes" : {
                        "POSITION" : 3,
                        "NORMAL" : 4
                    },
                    "indices" : 5,
                    "material" : 1
                }
            ]
        },
        {
            "name" : "Mesh_2",
            "primitives" : [
                {
                    "attributes" : {
                        "POSITION" : 6,
                        "NORMAL" : 7
                    },
                    "indices" : 8,
                    "material" : 2
                }
            ]
        }
    ],
    "accessors" : [
        {
            "bufferView" : 0,
            "componentType" : 5126,
            "count" : 21928,
            "max" : [
                0.006000000052154064,
                0.0009250000002793968,
                0.006000000052154064
            ],
            "min" : [
                -0.006000000052154064,
                -4.163336378533489e-20,
                -0.006000000052154064
            ],
            "type" : "VEC3"
        },
        {
            "bufferView" : 1,
            "componentType" : 5126,
            "count" : 21928,
            "type" : "VEC3"
        },
        {
            "bufferView" : 2,
            "componentType" : 5123,
            "count" : 32640,
            "type" : "SCALAR"
        },
        {
            "bufferView" : 3,
            "componentType" : 5126,
            "count" : 152,
            "max" : [
                -0.0044200001284480095,
                0.0015999999595806003,
                -0.0044200001284480095
            ],
            "min" : [
                -0.004720000084489584,
                0.001550000044517219,
                -0.004720000084489584
            ],
            "type" : "VEC3"
        },
        {
            "bufferView" : 4,
            "componentType" : 5126,
            "count" : 152,
            "type" : "VEC3"
        },
        {
            "bufferView" : 5,
            "componentType" : 5123,
            "count" : 318,
            "type" : "SCALAR"
        },
        {
            "bufferView" : 6,
            "componentType" : 5126,
            "count" : 580,
            "max" : [
                0.004999999888241291,
                0.0015999999595806003,
                0.004999999888241291
            ],
            "min" : [
                -0.004999999888241291,
                4.999999873689376e-05,
                -0.004999999888241291
            ],
            "type" : "VEC3"
        },
        {
            "bufferView" : 7,
            "componentType" : 5126,
            "count" : 580,
            "type" : "VEC3"
        },
        {
            "bufferView" : 8,
            "componentType" : 5123,
            "count" : 1326,
            "type" : "SCALAR"
        }
    ],
    "bufferViews" : [
        {
            "buffer" : 0,
            "byteLength" : 263136,
            "byteOffset" : 0
        },
        {
            "buffer" : 0,
            "byteLength" : 263136,
            "byteOffset" : 263136
        },
        {
            "buffer" : 0,
            "byteLength" : 65280,
            "byteOffset" : 526272
        },
        {
            "buffer" : 0,
            "byteLength" : 1824,
            "byteOffset" : 591552
        },
        {
            "buffer" : 0,
            "byteLength" : 1824,
            "byteOffset" : 593376
        },
        {
            "buffer" : 0,
            "byteLength" : 636,
            "byteOffset" : 595200
        },
        {
            "buffer" : 0,
            "byteLength" : 6960,
            "byteOffset" : 595836
        },
        {
            "buffer" : 0,
            "byteLength" : 6960,
            "byteOffset" : 602796
        },
        {
            "buffer" : 0,
            "byteLength" : 2652,
            "byteOffset" : 609756
        }
    ],
    "buffers" : [
        {
            "byteLength" : 612408,
            "uri" : "data:application/octet-stream;base64,"
        }
    ]
}
