{
    "asset" : {
        "generator" : "Khronos glTF Blender I/O v1.4.40",
        "version" : "2.0"
    },
    "scene" : 0,
    "scenes" : [
        {
            "name" : "Scene",
            "nodes" : [
                7,
                8,
                9
            ]
        }
    ],
    "nodes" : [
        {
            "mesh" : 0,
            "name" : "Mesh_0"
        },
        {
            "mesh" : 1,
            "name" : "Mesh_1"
        },
        {
            "mesh" : 2,
            "name" : "Mesh_2"
        },
        {
            "children" : [
                0,
                1,
                2
            ],
            "name" : "SOP65P640X120-20N"
        },
        {
            "children" : [
                3
            ],
            "name" : "SOP65P640X120-20N:U$1",
            "translation" : [
                0.007619999814778566,
                0.00634999992325902,
                0.0015699999639764428
            ]
        },
        {
            "children" : [
                4
            ],
            "name" : "PCB Component"
        },
        {
            "children" : [
                5
            ],
            "name" : "PCB Component:1",
            "translation" : [
                0.0014232981484383345,
                0.0004093505267519504,
                -0.00023679525475017726
            ]
        },
        {
            "children" : [
                6
            ],
            "name" : "STM32F030F4",
            "rotation" : [
                -0.014999437145888805,
                0,
                0,
                0.9998875260353088
            ],
            "translation" : [
                -0.009050115011632442,
                -0.0002066031302092597,
                -0.001956488937139511
            ]
        },
        {
            "name" : "Light",
            "rotation" : [
                0.16907575726509094,
                0.7558803558349609,
                -0.27217137813568115,
                0.570947527885437
            ],
            "translation" : [
                4.076245307922363,
                5.903861999511719,
                -1.0054539442062378
            ]
        },
        {
            "name" : "Camera",
            "rotation" : [
                0.483536034822464,
                0.33687159419059753,
                -0.20870360732078552,
                0.7804827094078064
            ],
            "translation" : [
                7.358891487121582,
                4.958309173583984,
                6.925790786743164
            ]
        }
    ],
    "materials" : [
        {
            "doubleSided" : true,
            "name" : "Material_0",
            "pbrMetallicRoughness" : {
                "baseColorFactor" : [
                    0.7490196228027344,
                    0.7490196228027344,
                    0.7490196228027344,
                    1
                ],
                "metallicFactor" : 0
            }
        },
        {
            "doubleSided" : true,
            "name" : "Material_1",
            "pbrMetallicRoughness" : {
                "baseColorFactor" : [
                    0.20000000298023224,
                    0.20000000298023224,
                    0.20000000298023224,
                    1
                ],
                "metallicFactor" : 0
            }
        },
        {
            "doubleSided" : true,
            "name" : "Material_2",
            "pbrMetallicRoughness" : {
                "baseColorFactor" : [
                    0.03921568766236305,
                    0.03921568766236305,
                    0.03921568766236305,
                    1
                ],
                "metallicFactor" : 0
            }
        }
    ],
    "meshes" : [
        {
            "name" : "Mesh_0",
            "primitives" : [
                {
                    "attributes" : {
                        "POSITION" : 0,
                        "NORMAL" : 1
                    },
                    "indices" : 2,
                    "material" : 0
                }
            ]
        },
        {
            "name" : "Mesh_1",
            "primitives" : [
                {
                    "attributes" : {
                        "POSITION" : 3,
                        "NORMAL" : 4
                    },
                    "indices" : 5,
                    "material" : 1
                }
            ]
        },
        {
            "name" : "Mesh_2",
            "primitives" : [
                {
                    "attributes" : {
                        "POSITION" : 6,
                        "NORMAL" : 7
                    },
                    "indices" : 8,
                    "material" : 2
                }
            ]
        }
    ],
    "accessors" : [
        {
            "bufferView" : 0,
            "componentType" : 5126,
            "count" : 6460,
            "max" : [
                0.0032999999821186066,
                0.003074999898672104,
                0.0007750000222586095
            ],
            "min" : [
                -0.0032999999821186066,
                -0.003074999898672104,
                8.326672757066978e-20
            ],
            "type" : "VEC3"
        },
        {
            "bufferView" : 1,
            "componentType" : 5126,
            "count" : 6460,
            "type" : "VEC3"
        },
        {
            "bufferView" : 2,
            "componentType" : 5123,
            "count" : 10200,
            "type" : "SCALAR"
        },
        {
            "bufferView" : 3,
            "componentType" : 5126,
            "count" : 144,
            "max" : [
                -0.0017099999822676182,
                0.003060000017285347,
                0.0012000000569969416
            ],
            "min" : [
                -0.0020099999383091927,
                0.0027600000612437725,
                0.0011500000255182385
            ],
            "type" : "VEC3"
        },
        {
            "bufferView" : 4,
            "componentType" : 5126,
            "count" : 144,
            "type" : "VEC3"
        },
        {
            "bufferView" : 5,
            "componentType" : 5123,
            "count" : 318,
            "type" : "SCALAR"
        },
        {
            "bufferView" : 6,
            "componentType" : 5126,
            "count" : 320,
            "max" : [
                0.0022499999031424522,
                0.0032999999821186066,
                0.0012000000569969416
            ],
            "min" : [
                -0.0022499999031424522,
                -0.0032999999821186066,
                0.0001500000071246177
            ],
            "type" : "VEC3"
        },
        {
            "bufferView" : 7,
            "componentType" : 5126,
            "count" : 320,
            "type" : "VEC3"
        },
        {
            "bufferView" : 8,
            "componentType" : 5123,
            "count" : 534,
            "type" : "SCALAR"
        }
    ],
    "bufferViews" : [
        {
            "buffer" : 0,
            "byteLength" : 77520,
            "byteOffset" : 0
        },
        {
            "buffer" : 0,
            "byteLength" : 77520,
            "byteOffset" : 77520
        },
        {
            "buffer" : 0,
            "byteLength" : 20400,
            "byteOffset" : 155040
        },
        {
            "buffer" : 0,
            "byteLength" : 1728,
            "byteOffset" : 175440
        },
        {
            "buffer" : 0,
            "byteLength" : 1728,
            "byteOffset" : 177168
        },
        {
            "buffer" : 0,
            "byteLength" : 636,
            "byteOffset" : 178896
        },
        {
            "buffer" : 0,
            "byteLength" : 3840,
            "byteOffset" : 179532
        },
        {
            "buffer" : 0,
            "byteLength" : 3840,
            "byteOffset" : 183372
        },
        {
            "buffer" : 0,
            "byteLength" : 1068,
            "byteOffset" : 187212
        }
    ],
    "buffers" : [
        {
            "byteLength" : 188280,
            "uri" : "data:application/octet-stream;base64,"
        }
    ]
}
